<?xml version="1.0" ?><svg height="512" id="Layer_1" version="1.1" viewBox="0 0 512 512" width="512" xml:space="preserve" xmlns="http://www.w3.org/2000/svg" xmlns:cc="http://creativecommons.org/ns#" xmlns:dc="http://purl.org/dc/elements/1.1/" xmlns:inkscape="http://www.inkscape.org/namespaces/inkscape" xmlns:rdf="http://www.w3.org/1999/02/22-rdf-syntax-ns#" xmlns:sodipodi="http://sodipodi.sourceforge.net/DTD/sodipodi-0.dtd" xmlns:svg="http://www.w3.org/2000/svg"><defs id="defs12"/><g id="g5570"><rect height="512" id="rect2987" rx="64" ry="64" style="fill:#5588c7;fill-opacity:1;fill-rule:nonzero;stroke:none" width="512" x="0" y="5.6843419e-014"/><path d="m 301.90198,168.12445 v 35.14725 h -35.1291 -35.1225 -35.13411 v -35.14725 c 0,-20.73827 12.8316,-35.97962 24.35301,-35.97962 h 59.4852 V 62.669501 h -59.4852 c -52.16719,0 -94.60626,47.303089 -94.60626,105.454949 V 203.2717 H 55.999825 v 70.27309 H 126.26302 V 449.3305 h 70.25325 V 273.54479 h 35.13411 35.1225 35.1291 V 449.3305 h 70.2632 V 273.54479 h 70.24999 V 203.2717 h -70.24999 v -35.14725 c 0,-20.73827 12.8316,-35.97962 24.3496,-35.97962 h 59.4854 V 62.669501 h -59.4854 c -52.167,0 -94.6128,47.303089 -94.6128,105.454949 z" id="path9" style="fill:#ffffff"/></g></svg>